<?xml version="1.0" encoding="UTF-8"?>
<svg width="247px" height="60px" viewBox="0 0 247 60" version="1.1" xmlns="http://www.w3.org/2000/svg" xmlns:xlink="http://www.w3.org/1999/xlink">
    <!-- Generator: Sketch 48.2 (47327) - http://www.bohemiancoding.com/sketch -->
    <title>logo_yellow</title>
    <desc>Created with Sketch.</desc>
    <defs></defs>
    <g id="S3ntigraph---Index---Desktop" stroke="none" stroke-width="1" fill="none" fill-rule="evenodd" transform="translate(-70.000000, -4650.000000)">
        <g id="06---Roadmap" transform="translate(0.000000, 4600.000000)" fill="#F8E71C" fill-rule="nonzero">
            <g id="logo" transform="translate(70.000000, 50.000000)">
                <g id="logo_yellow">
                    <path d="M46.29,46.5525 C46.8353411,46.5115507 47.2784028,46.0960361 47.354226,45.5544416 C47.4300493,45.0128471 47.1181293,44.4916351 46.605,44.3025 C45.4907975,44.0711493 44.3512738,43.9854329 43.215,44.0475 C42.8667687,44.0797978 42.5190342,43.9808272 42.24,43.77 C41.9331982,43.4899931 41.5003197,43.3949328 41.1044257,43.5206275 C40.7085316,43.6463222 40.4097678,43.9736759 40.3206756,44.3793776 C40.2315834,44.7850792 40.3656981,45.2074931 40.6725,45.4875 C41.375629,46.0968037 42.285506,46.4135161 43.215,46.3725 C44.138557,46.3264494 45.0643642,46.3843123 45.975,46.545 C46.079173,46.5617842 46.1851462,46.5643074 46.29,46.5525 Z" id="Shape"></path>
                    <path d="M5.79,46.5525 C5.24465889,46.5115507 4.80159719,46.0960361 4.72577396,45.5544416 C4.64995073,45.0128471 4.96187071,44.4916351 5.475,44.3025 C6.58920254,44.0711493 7.72872621,43.9854329 8.865,44.0475 C9.21323129,44.0797978 9.5609658,43.9808272 9.84,43.77 C10.1468018,43.4899931 10.5796803,43.3949328 10.9755743,43.5206275 C11.3714684,43.6463222 11.6702322,43.9736759 11.7593244,44.3793776 C11.8484166,44.7850792 11.7143019,45.2074931 11.4075,45.4875 C10.704371,46.0968037 9.79449402,46.4135161 8.865,46.3725 C7.94144301,46.3264494 7.01563585,46.3843123 6.105,46.545 C6.00082697,46.5617842 5.89485378,46.5643074 5.79,46.5525 Z" id="Shape"></path>
                    <path d="M13.8675,8.1825 C13.8654874,7.87357324 13.9873183,7.576716 14.2057672,7.35826716 C14.424216,7.13981831 14.7210732,7.01798738 15.03,7.02 C15.672031,7.02 16.1925,7.54046898 16.1925,8.1825 C16.1925133,8.82161346 15.6766002,9.34087669 15.0375,9.345 C14.7278884,9.34699754 14.4302716,9.22540261 14.2106357,9.00717469 C13.9909999,8.78894677 13.8674936,8.49211804 13.8675,8.1825 Z" id="Shape"></path>
                    <path d="M14.9475,6.2025 C14.3097504,6.13183037 13.8498613,5.5578082 13.92,4.92 C13.9906696,4.28225041 14.5646918,3.8223613 15.2025,3.8925 C15.8402496,3.96316963 16.3001387,4.5371918 16.23,5.175 C16.165016,5.76392752 15.6675019,6.20975183 15.075,6.21 L14.9475,6.21 L14.9475,6.2025 Z" id="Shape"></path>
                    <path d="M15.675,3.0975 C15.4096255,2.51546351 15.6643465,1.8283871 16.245,1.56 C16.8270365,1.29462551 17.5141129,1.54934653 17.7825,2.13 C18.0478745,2.71203649 17.7931535,3.3991129 17.2125,3.6675 C17.0597403,3.73804849 16.8932576,3.7739063 16.725,3.7725 C16.273087,3.77229042 15.862808,3.50853961 15.675,3.0975 Z" id="Shape"></path>
                    <path d="M18.555,1.8525 C18.3260423,1.25398591 18.6246028,0.583063658 19.2225,0.3525 C19.5098108,0.240445896 19.8300016,0.247943462 20.1117527,0.373322677 C20.3935037,0.498701891 20.6134139,0.731549282 20.7225,1.02 C20.9514577,1.61851409 20.6528972,2.28943634 20.055,2.52 C19.9234144,2.5706271 19.7834849,2.59606883 19.6425,2.595 C19.1612563,2.59645756 18.7288673,2.30124025 18.555,1.8525 Z" id="Shape"></path>
                    <path d="M15,12.48 C14.5312431,12.4793961 14.108712,12.1973154 13.9284208,11.7646163 C13.7481295,11.3319173 13.8453574,10.8332704 14.175,10.5 C14.6392366,10.0656275 15.3607634,10.0656275 15.825,10.5 C16.2738857,10.9554916 16.2738857,11.6870084 15.825,12.1425 C15.7696619,12.195609 15.7093896,12.2433246 15.645,12.285 C15.5819128,12.3279234 15.513933,12.3631721 15.4425,12.39 C15.3728615,12.4208547 15.2998714,12.4435068 15.225,12.4575 C15.1510562,12.4732549 15.0755994,12.4808006 15,12.48 Z" id="Shape"></path>
                    <path d="M7.6275,33 C7.6275,32.6916858 7.74997733,32.3959994 7.96798837,32.1779884 C8.18599941,31.9599773 8.48168583,31.8375 8.79,31.8375 C9.09831417,31.8375 9.39400059,31.9599773 9.61201163,32.1779884 C9.83002267,32.3959994 9.9525,32.6916858 9.9525,33 C9.9525,33.642031 9.43203102,34.1625 8.79,34.1625 C8.14796898,34.1625 7.6275,33.642031 7.6275,33 Z" id="Shape"></path>
                    <path d="M11.445,34.1775 C11.3701415,34.1840152 11.2948585,34.1840152 11.22,34.1775 C11.1455577,34.1618166 11.0727418,34.1392185 11.0025,34.11 L10.8,34.005 C10.7383396,33.9627736 10.6806066,33.915081 10.6275,33.8625 C10.4082393,33.6468054 10.2840649,33.3525662 10.2825,33.045 C10.2740151,32.9677322 10.2740151,32.8897678 10.2825,32.8125 C10.296749,32.7376923 10.3193922,32.6647309 10.35,32.595 C10.3784068,32.5242806 10.4135697,32.4564665 10.455,32.3925 C10.4971937,32.330815 10.5448886,32.2730791 10.5975,32.22 C11.060683,31.790286 11.776817,31.790286 12.24,32.22 C12.4593965,32.4369631 12.5828587,32.7326924 12.5828587,33.04125 C12.5828587,33.3498076 12.4593965,33.6455369 12.24,33.8625 C12.0242385,34.0640496 11.7402531,34.1765721 11.445,34.1775 Z" id="Shape"></path>
                    <path d="M6.135,34.1775 C4.57461944,34.1826541 3.08982502,33.5060042 2.07,32.325 C0.465,30.5325 -0.255,27.675 0.0975,24.4725 C0.184521507,23.8495796 0.75120105,23.408845 1.37637288,23.4778575 C2.00154471,23.5468699 2.45844598,24.1005973 2.4075,24.7275 C2.13,27.24 2.655,29.4975 3.8025,30.78 C4.38186301,31.4674398 5.23598581,31.8629179 6.135,31.86 C6.77703102,31.86 7.2975,32.380469 7.2975,33.0225 C7.2975,33.664531 6.77703102,34.185 6.135,34.185 L6.135,34.1775 Z" id="Shape"></path>
                    <path d="M9.24,27.75 C9.24782922,27.4423018 9.37815156,27.1504563 9.6020417,26.9392392 C9.82593184,26.7280221 10.1248678,26.614907 10.4325,26.625 C10.7408483,26.6328546 11.0334345,26.7629311 11.2458411,26.9865911 C11.4582478,27.2102511 11.57306,27.509157 11.565,27.8175 C11.5571454,28.1258483 11.4270689,28.4184345 11.2034089,28.6308411 C10.9797489,28.8432478 10.680843,28.95806 10.3725,28.95 C10.0628132,28.94217 9.76906064,28.8110573 9.55643715,28.5857609 C9.34381365,28.3604645 9.22990794,28.0596213 9.24,27.75 Z" id="Shape"></path>
                    <path d="M12.225,27.7875 C12.2107573,27.4791037 12.3197718,27.1777079 12.5280023,26.9497799 C12.7362328,26.7218519 13.0265753,26.5861137 13.335,26.5725 C13.6433963,26.5582573 13.9447921,26.6672718 14.1727201,26.8755023 C14.4006481,27.0837328 14.5363863,27.3740753 14.55,27.6825 C14.5642427,27.9908963 14.4552282,28.2922921 14.2469977,28.5202201 C14.0387672,28.7481481 13.7484247,28.8838863 13.44,28.8975 L13.3875,28.8975 C12.7654249,28.8981347 12.2530934,28.4089407 12.225,27.7875 Z" id="Shape"></path>
                    <path d="M7.215,26.25 C7.0806152,25.6225095 7.48010194,25.0048157 8.1075,24.87 C8.7349905,24.7356152 9.35268428,25.1351019 9.4875,25.7625 C9.6218848,26.3899905 9.22239806,27.0076843 8.595,27.1425 C8.51278439,27.1521875 8.42971561,27.1521875 8.3475,27.1425 C7.8088086,27.1433291 7.34011493,26.7739612 7.215,26.25 Z" id="Shape"></path>
                    <path d="M8.1975,24.1575 C7.8891315,24.1477132 7.59730107,24.0157462 7.38628898,23.7906666 C7.17527688,23.565587 7.06239236,23.2658582 7.0725,22.9575 C7.08228677,22.6491315 7.21425385,22.3573011 7.43933341,22.146289 C7.66441298,21.9352769 7.96414185,21.8223924 8.2725,21.8325 C8.5808685,21.8422868 8.87269893,21.9742538 9.08371102,22.1993334 C9.29472312,22.424413 9.40760764,22.7241418 9.3975,23.0325 C9.37725276,23.6598404 8.86266697,24.1578267 8.235,24.1575 L8.1975,24.1575 Z" id="Shape"></path>
                    <path d="M1.5,22.695 C1.19777347,22.6010288 0.946927169,22.3878928 0.805384624,22.1048077 C0.663842078,21.8217226 0.643841041,21.4931639 0.75,21.195 C0.845779648,20.8940342 1.0591694,20.6445758 1.34166419,20.5033284 C1.62415898,20.362081 1.95175959,20.3410443 2.25,20.445 C2.55222653,20.5389712 2.80307283,20.7521072 2.94461538,21.0351923 C3.08615792,21.3182774 3.10615896,21.6468361 3,21.945 C2.84647363,22.424048 2.40054677,22.7486342 1.8975,22.7475 C1.76297978,22.7527059 1.628556,22.7349518 1.5,22.695 Z" id="Shape"></path>
                    <path d="M6.99,20.25 C6.9232305,19.9475598 6.97991126,19.630979 7.14746742,19.3704926 C7.31502357,19.1100061 7.57960027,18.927153 7.8825,18.8625 C8.5099905,18.7281152 9.12768428,19.1276019 9.2625,19.755 C9.3968848,20.3824905 8.99739806,21.0001843 8.37,21.135 C8.28777644,21.1445511 8.20472356,21.1445511 8.1225,21.135 C7.58601247,21.1366639 7.1180628,20.7709813 6.99,20.25 Z" id="Shape"></path>
                    <path d="M2.52,19.8225 C2.08317407,19.3523046 2.11003194,18.6170705 2.58,18.18 C3.0501954,17.7431741 3.78542949,17.7700319 4.2225,18.24 C4.43416674,18.4648817 4.54695797,18.7651645 4.53568411,19.0737864 C4.52441025,19.3824083 4.39001041,19.6736613 4.1625,19.8825 C3.94944705,20.0835704 3.66794893,20.1961696 3.375,20.1975 C3.0499272,20.1983893 2.73952929,20.0622499 2.52,19.8225 Z" id="Shape"></path>
                    <path d="M6,19.29 C5.69261113,19.263318 5.40843875,19.11553 5.21008422,18.8791927 C5.01172969,18.6428554 4.9154662,18.3373581 4.9425,18.03 C4.96918196,17.7226111 5.11696997,17.4384388 5.35330729,17.2400842 C5.58964461,17.0417297 5.89514187,16.9454662 6.2025,16.9725 C6.50988887,16.999182 6.79406125,17.14697 6.99241578,17.3833073 C7.19077031,17.6196446 7.2870338,17.9251419 7.26,18.2325 C7.2057818,18.830338 6.70528984,19.2885807 6.105,19.29 L6,19.29 Z" id="Shape"></path>
                    <path d="M6,15.9 C5.64912931,15.900768 5.31668231,15.7430201 5.09537051,15.4707483 C4.8740587,15.1984765 4.78756117,14.8408125 4.86,14.4975 C5.4975,11.4975 8.7,7.9275 12.0225,7.635 C12.4364815,7.59882682 12.8383144,7.78625796 13.076632,8.12668989 C13.3149496,8.46712183 13.3535459,8.90883486 13.177882,9.28543995 C13.0022181,9.66204503 12.6389815,9.91632689 12.225,9.9525 C11.3625,10.0275 7.725,12.0075 7.1325,14.985 C7.01638373,15.5179014 6.54540298,15.8984289 6,15.9 Z" id="Shape"></path>
                    <path d="M15.6375,57.195 C15.165349,56.7600514 15.1351301,56.0247234 15.57,55.5525 C16.0049486,55.080349 16.7402766,55.0501301 17.2125,55.485 C17.4402864,55.6928446 17.5761622,55.9826752 17.590228,56.2907145 C17.6042937,56.5987538 17.4953968,56.8997611 17.2875,57.1275 C17.0679707,57.3672499 16.7575728,57.5033893 16.4325,57.5025 C16.1382614,57.5036129 15.8544061,57.3938199 15.6375,57.195 Z" id="Shape"></path>
                    <path d="M14.0175,53.7975 C13.9969869,53.4897943 14.1003801,53.1866635 14.3046496,52.9556277 C14.5089191,52.7245918 14.7970992,52.5848397 15.105,52.5675 C15.7447547,52.5246167 16.2984318,53.0078259 16.3425,53.6475 C16.363046,53.9559691 16.2598755,54.2599172 16.0557993,54.4921418 C15.8517231,54.7243664 15.563552,54.8657382 15.255,54.885 L15.1725,54.885 C14.5615449,54.8823308 14.056911,54.4071885 14.0175,53.7975 Z" id="Shape"></path>
                    <path d="M15.12,51.9 C14.4809018,51.8917665 13.9683234,51.3691376 13.9725,50.73 C13.9744827,50.4216838 14.0988657,50.1267838 14.3182846,49.9101779 C14.5377036,49.693572 14.8341839,49.5730044 15.1425,49.575 C15.4508162,49.5769827 15.7457162,49.7013657 15.9623221,49.9207846 C16.178928,50.1402036 16.2994956,50.4366839 16.2975,50.745 C16.2933767,51.3841002 15.7741135,51.9000133 15.135,51.9 L15.12,51.9 Z" id="Shape"></path>
                    <path d="M10.5975,43.1025 C10.289167,43.09659 9.9958172,42.9684076 9.78201345,42.7461643 C9.5682097,42.5239209 9.45147453,42.2258308 9.4575,41.9175 C9.46340996,41.609167 9.59159236,41.3158172 9.81383573,41.1020135 C10.0360791,40.8882097 10.3341692,40.7714745 10.6425,40.7775 C10.9514846,40.7814082 11.2460184,40.9089666 11.4602518,41.1316565 C11.6744852,41.3543465 11.7905509,41.6535956 11.7825,41.9625 C11.7702417,42.5957273 11.2533459,43.1026186 10.62,43.1025 L10.5975,43.1025 Z" id="Shape"></path>
                    <path d="M9.5625,39.75 C9.32563694,39.1700088 9.59098453,38.5066398 10.1625,38.25 C10.7424912,38.0131369 11.4058602,38.2784845 11.6625,38.85 C11.8993631,39.4299912 11.6340155,40.0933602 11.0625,40.35 C10.9159315,40.4143731 10.7575819,40.4475755 10.5975,40.4475 C10.1463575,40.435611 9.74286303,40.1636908 9.5625,39.75 Z" id="Shape"></path>
                    <path d="M12.1125,54 L12,54 C10.4212513,53.8958801 8.88483269,53.4451973 7.5,52.68 C4.695,51.18 2.4825,47.955 3.6675,45.6375 C4.03495598,44.9302835 4.69684339,44.4221957 5.475,44.25 C5.8769238,44.1374613 6.3083554,44.247895 6.60677866,44.5397019 C6.90520193,44.8315088 7.02527926,45.2603564 6.92177868,45.664702 C6.81827811,46.0690476 6.50692383,46.3874614 6.105,46.5 C5.835,46.575 5.805,46.6425 5.7675,46.7175 C5.355,47.5275 6.6675,49.59 8.64,50.6625 C9.72900435,51.2660353 10.9377061,51.6219877 12.18,51.705 C12.822031,51.7236396 13.3273896,52.259219 13.30875,52.90125 C13.2901104,53.543281 12.754531,54.0486396 12.1125,54.03 L12.1125,54 Z" id="Shape"></path>
                    <path d="M5.79,46.5525 C5.64610044,46.5512328 5.50368694,46.5232587 5.37,46.47 C3.18,45.615 1.47,43.005 0.69,40.6125 C-0.153511323,37.7593744 0.192741124,34.6863839 1.65,32.0925 C2.01203148,31.5989514 2.69475336,31.4706781 3.21123357,31.7991674 C3.72771378,32.1276567 3.90099968,32.8003641 3.6075,33.3375 C2.51913713,35.3443803 2.26323828,37.6986497 2.895,39.8925 C3.4575,41.6175 4.6725,43.71 6.21,44.31 C6.73695235,44.5089962 7.04542702,45.0571423 6.94206776,45.6108526 C6.8387085,46.164563 6.35325655,46.5645095 5.79,46.56 L5.79,46.5525 Z" id="Shape"></path>
                    <path d="M37.0575,9.345 C36.4183998,9.34087669 35.9024867,8.82161346 35.9025,8.1825 C35.9025,7.54046898 36.422969,7.02 37.065,7.02 C37.707031,7.02 38.2275,7.54046898 38.2275,8.1825 C38.2275,8.82453102 37.707031,9.345 37.065,9.345 L37.0575,9.345 Z" id="Shape"></path>
                    <path d="M37.005,6.21 C36.4124981,6.20975183 35.914984,5.76392752 35.85,5.175 C35.7798613,4.5371918 36.2397504,3.96316963 36.8775,3.8925 C37.5153082,3.8223613 38.0893304,4.28225041 38.16,4.92 C38.2301387,5.5578082 37.7702496,6.13183037 37.1325,6.2025 L37.005,6.21 Z" id="Shape"></path>
                    <path d="M35.3475,3.75 C35.1792424,3.7514063 35.0127597,3.71554849 34.86,3.645 C34.2793465,3.3766129 34.0246255,2.68953649 34.29,2.1075 C34.5583871,1.52684653 35.2454635,1.27212551 35.8275,1.5375 C36.3709732,1.73804677 36.6838582,2.30812089 36.5611907,2.87427881 C36.4385231,3.44043673 35.917742,3.82988318 35.34,3.7875 L35.3475,3.75 Z" id="Shape"></path>
                    <path d="M32.4375,2.6025 C32.2965151,2.60356883 32.1565856,2.5781271 32.025,2.5275 C31.4271028,2.29693634 31.1285423,1.62601409 31.3575,1.0275 C31.4665861,0.739049282 31.6864963,0.506201891 31.9682473,0.380822677 C32.2499984,0.255443462 32.5701892,0.247945896 32.8575,0.36 C33.3830767,0.558529347 33.6914663,1.10451988 33.590154,1.65713241 C33.4888417,2.20974493 33.0068221,2.61082711 32.445,2.61 L32.4375,2.6025 Z" id="Shape"></path>
                    <path d="M37.0575,12.48 C37.5262569,12.4793961 37.948788,12.1973154 38.1290792,11.7646163 C38.3093705,11.3319173 38.2121426,10.8332704 37.8825,10.5 C37.4182634,10.0656275 36.6967366,10.0656275 36.2325,10.5 C35.7836143,10.9554916 35.7836143,11.6870084 36.2325,12.1425 C36.2878381,12.195609 36.3481104,12.2433246 36.4125,12.285 C36.4755872,12.3279234 36.543567,12.3631721 36.615,12.39 C36.6846385,12.4208547 36.7576286,12.4435068 36.8325,12.4575 C36.9064438,12.4732549 36.9819006,12.4808006 37.0575,12.48 Z" id="Shape"></path>
                    <path d="M44.4525,33 C44.4525,32.6916858 44.3300227,32.3959994 44.1120116,32.1779884 C43.8940006,31.9599773 43.5983142,31.8375 43.29,31.8375 C42.9816858,31.8375 42.6859994,31.9599773 42.4679884,32.1779884 C42.2499773,32.3959994 42.1275,32.6916858 42.1275,33 C42.1275,33.642031 42.647969,34.1625 43.29,34.1625 C43.5983142,34.1625 43.8940006,34.0400227 44.1120116,33.8220116 C44.3300227,33.6040006 44.4525,33.3083142 44.4525,33 Z" id="Shape"></path>
                    <path d="M40.635,34.1775 C40.7098585,34.1840152 40.7851415,34.1840152 40.86,34.1775 C40.9344423,34.1618166 41.0072582,34.1392185 41.0775,34.11 L41.28,34.005 C41.3416604,33.9627736 41.3993934,33.915081 41.4525,33.8625 C41.6717607,33.6468054 41.7959351,33.3525662 41.7975,33.045 C41.8059849,32.9677322 41.8059849,32.8897678 41.7975,32.8125 C41.783251,32.7376923 41.7606078,32.6647309 41.73,32.595 C41.7015932,32.5242806 41.6664303,32.4564665 41.625,32.3925 C41.5828063,32.330815 41.5351114,32.2730791 41.4825,32.22 C41.019317,31.790286 40.303183,31.790286 39.84,32.22 C39.6206035,32.4369631 39.4971413,32.7326924 39.4971413,33.04125 C39.4971413,33.3498076 39.6206035,33.6455369 39.84,33.8625 C40.0557615,34.0640496 40.3397469,34.1765721 40.635,34.1775 Z" id="Shape"></path>
                    <path d="M45.9525,34.1775 C47.5128806,34.1826541 48.997675,33.5060042 50.0175,32.325 C51.6225,30.5325 52.3425,27.675 51.99,24.4725 C51.9029785,23.8495796 51.336299,23.408845 50.7111271,23.4778575 C50.0859553,23.5468699 49.629054,24.1005973 49.68,24.7275 C49.9575,27.24 49.4325,29.4975 48.285,30.78 C47.705637,31.4674398 46.8515142,31.8629179 45.9525,31.86 C45.310469,31.86 44.79,32.380469 44.79,33.0225 C44.79,33.664531 45.310469,34.185 45.9525,34.185 L45.9525,34.1775 Z" id="Shape"></path>
                    <path d="M41.715,28.9125 C41.3976942,28.9268447 41.0883372,28.8107298 40.8588354,28.5911447 C40.6293335,28.3715595 40.4996759,28.0676297 40.5,27.75 C40.49194,27.441657 40.6067522,27.1427511 40.8191589,26.9190911 C41.0315655,26.6954311 41.3241517,26.5653546 41.6325,26.5575 C42.0666897,26.5130793 42.4891763,26.7156039 42.7264773,27.0819126 C42.9637784,27.4482213 42.9759043,27.9165846 42.7578759,28.2946818 C42.5398475,28.672779 42.1284066,28.896894 41.6925,28.875 L41.715,28.9125 Z" id="Shape"></path>
                    <path d="M38.7,28.8975 L38.6475,28.8975 C38.3390753,28.8838863 38.0487328,28.7481481 37.8405023,28.5202201 C37.6322718,28.2922921 37.5232573,27.9908963 37.5375,27.6825 C37.5511137,27.3740753 37.6868519,27.0837328 37.9147799,26.8755023 C38.1427079,26.6672718 38.4441037,26.5582573 38.7525,26.5725 C39.394531,26.5869975 39.9032474,27.119219 39.8887499,27.76125 C39.8742524,28.403281 39.342031,28.9119974 38.7,28.8975 Z" id="Shape"></path>
                    <path d="M36.5325,27.255 C36.0022528,27.2576218 35.5383353,26.898859 35.4075,26.385 C35.3276102,26.087576 35.3698095,25.7705633 35.5247222,25.5043952 C35.6796349,25.238227 35.9344308,25.0449479 36.2325,24.9675 C36.8515271,24.8055214 37.4850731,25.1742519 37.65,25.7925 C37.8119786,26.4115271 37.4432481,27.0450731 36.825,27.21 C36.7298694,27.2376454 36.6315411,27.2527729 36.5325,27.255 Z" id="Shape"></path>
                    <path d="M43.7325,27.135 C43.6502844,27.1446875 43.5672156,27.1446875 43.485,27.135 C42.8576019,27.0001843 42.4581152,26.3824905 42.5925,25.755 C42.7273157,25.1276019 43.3450095,24.7281152 43.9725,24.8625 C44.5456137,24.9950784 44.9293691,25.534878 44.8662963,26.1197354 C44.8032234,26.7045927 44.3132027,27.1501616 43.725,27.1575 L43.7325,27.135 Z" id="Shape"></path>
                    <path d="M43.845,24.1575 C43.217333,24.1578267 42.7027472,23.6598404 42.6825,23.0325 C42.6723924,22.7241418 42.7852769,22.424413 42.996289,22.1993334 C43.2073011,21.9742538 43.4991315,21.8422868 43.8075,21.8325 C44.1158582,21.8223924 44.415587,21.9352769 44.6406666,22.146289 C44.8657462,22.3573011 44.9977132,22.6491315 45.0075,22.9575 C45.0176076,23.2658582 44.9047231,23.565587 44.693711,23.7906666 C44.4826989,24.0157462 44.1908685,24.1477132 43.8825,24.1575 L43.845,24.1575 Z" id="Shape"></path>
                    <path d="M50.19,22.755 C49.6869532,22.7561342 49.2410264,22.431548 49.0875,21.9525 C48.981341,21.6543361 49.0013421,21.3257774 49.1428846,21.0426923 C49.2844272,20.7596072 49.5352735,20.5464712 49.8375,20.4525 C50.1357404,20.3485443 50.463341,20.369581 50.7458358,20.5108284 C51.0283306,20.6520758 51.2417204,20.9015342 51.3375,21.2025 C51.443659,21.5006639 51.4236579,21.8292226 51.2821154,22.1123077 C51.1405728,22.3953928 50.8897265,22.6085288 50.5875,22.7025 C50.458944,22.7424518 50.3245202,22.7602059 50.19,22.755 Z" id="Shape"></path>
                    <path d="M43.965,21.1725 C43.8827764,21.1820511 43.7997236,21.1820511 43.7175,21.1725 C43.0901019,21.0376843 42.6906152,20.4199905 42.825,19.7925 C42.9598157,19.1651019 43.5775095,18.7656152 44.205,18.9 C44.5078997,18.964653 44.7724764,19.1475061 44.9400326,19.4079926 C45.1075887,19.668479 45.1642695,19.9850598 45.0975,20.2875 C44.9694372,20.8084813 44.5014875,21.1741639 43.965,21.1725 Z" id="Shape"></path>
                    <path d="M48.7125,20.19 C48.4195511,20.1886696 48.1380529,20.0760704 47.925,19.875 C47.6974896,19.6661613 47.5630897,19.3749083 47.5518159,19.0662864 C47.540542,18.7576645 47.6533333,18.4573817 47.865,18.2325 C48.3020705,17.7625319 49.0373046,17.7356741 49.5075,18.1725 C49.8550539,18.4988138 49.9681499,19.0042492 49.7928082,19.4475659 C49.6174665,19.8908826 49.189233,20.1822101 48.7125,20.1825 L48.7125,20.19 Z" id="Shape"></path>
                    <path d="M45.96,19.29 C45.3597102,19.2885807 44.8592182,18.830338 44.805,18.2325 C44.7779662,17.9251419 44.8742297,17.6196446 45.0725842,17.3833073 C45.2709388,17.14697 45.5551111,16.999182 45.8625,16.9725 C46.1698581,16.9454662 46.4753554,17.0417297 46.7116927,17.2400842 C46.94803,17.4384388 47.095818,17.7226111 47.1225,18.03 C47.1495338,18.3373581 47.0532703,18.6428554 46.8549158,18.8791927 C46.6565612,19.11553 46.3723889,19.263318 46.065,19.29 L45.96,19.29 Z" id="Shape"></path>
                    <path d="M46.1025,15.9 C46.4533707,15.900768 46.7858177,15.7430201 47.0071295,15.4707483 C47.2284413,15.1984765 47.3149388,14.8408125 47.2425,14.4975 C46.605,11.4975 43.4025,7.9275 40.08,7.635 C39.4400401,7.57908122 38.8759189,8.05254009 38.8200001,8.69250001 C38.7640813,9.33245993 39.2375401,9.89658112 39.8775,9.9525 C40.74,10.0275 44.3775,12.0075 44.97,14.985 C45.0861163,15.5179014 45.557097,15.8984289 46.1025,15.9 Z" id="Shape"></path>
                    <path d="M35.6625,57.5025 C35.3374272,57.5033893 35.0270293,57.3672499 34.8075,57.1275 C34.5996032,56.8997611 34.4907063,56.5987538 34.504772,56.2907145 C34.5188378,55.9826752 34.6547136,55.6928446 34.8825,55.485 C35.3547234,55.0501301 36.0900514,55.080349 36.525,55.5525 C36.9598699,56.0247234 36.929651,56.7600514 36.4575,57.195 C36.2405939,57.3938199 35.9567386,57.5036129 35.6625,57.5025 Z" id="Shape"></path>
                    <path d="M36.9075,54.8925 L36.825,54.8925 C36.516448,54.8732382 36.2282769,54.7318664 36.0242007,54.4996418 C35.8201245,54.2674172 35.716954,53.9634691 35.7375,53.655 C35.7815682,53.0153259 36.3352453,52.5321167 36.975,52.575 C37.5800017,52.6381541 38.0340231,53.1570314 38.0163135,53.7650625 C37.9986038,54.3730936 37.5151518,54.8646659 36.9075,54.8925 Z" id="Shape"></path>
                    <path d="M36.9525,51.9 C36.3133865,51.9000133 35.7941233,51.3841002 35.79,50.745 C35.7880044,50.4366839 35.908572,50.1402036 36.1251779,49.9207846 C36.3417838,49.7013657 36.6366838,49.5769827 36.945,49.575 C37.2533161,49.5730044 37.5497964,49.693572 37.7692154,49.9101779 C37.9886343,50.1267838 38.1130173,50.4216838 38.115,50.73 C38.1191766,51.3691376 37.6065982,51.8917665 36.9675,51.9 L36.9525,51.9 Z" id="Shape"></path>
                    <path d="M41.46,42.9825 C40.8266541,42.9826186 40.3097583,42.4757273 40.2975,41.8425 C40.2894491,41.5335956 40.4055148,41.2343465 40.6197482,41.0116565 C40.8339816,40.7889666 41.1285154,40.6614082 41.4375,40.6575 C41.7458308,40.6514745 42.0439209,40.7682097 42.2661643,40.9820135 C42.4884076,41.1958172 42.61659,41.489167 42.6225,41.7975 C42.6285255,42.1058308 42.5117903,42.4039209 42.2979865,42.6261643 C42.0841828,42.8484076 41.790833,42.97659 41.4825,42.9825 L41.46,42.9825 Z" id="Shape"></path>
                    <path d="M41.46,40.455 C41.2999181,40.4550755 41.1415685,40.4218731 40.995,40.3575 C40.4234845,40.1008602 40.1581369,39.4374912 40.395,38.8575 C40.6516398,38.2859845 41.3150088,38.0206369 41.895,38.2575 C42.4319904,38.4581674 42.7425349,39.0203337 42.6265131,39.5817294 C42.5104913,40.143125 42.0025435,40.5361363 41.43,40.5075 L41.46,40.455 Z" id="Shape"></path>
                    <path d="M39.975,54 L40.05,54 C41.6287487,53.8958801 43.1651673,53.4451973 44.55,52.68 C47.355,51.18 49.5675,47.955 48.3825,45.6375 C48.0232166,44.9343557 47.373389,44.4243645 46.605,44.2425 C46.2030762,44.1299613 45.7716446,44.240395 45.4732213,44.5322019 C45.174798,44.8240088 45.0547207,45.2528564 45.1582213,45.657202 C45.2617219,46.0615476 45.5730762,46.3799614 45.975,46.4925 C46.245,46.5675 46.275,46.635 46.3125,46.71 C46.725,47.52 45.4125,49.5825 43.44,50.655 C42.3509956,51.2585353 41.1422939,51.6144877 39.9,51.6975 C39.257969,51.7161396 38.7526104,52.251719 38.77125,52.89375 C38.7898896,53.535781 39.325469,54.0411396 39.9675,54.0225 L39.975,54 Z" id="Shape"></path>
                    <path d="M46.29,46.5525 C46.4338996,46.5512328 46.5763131,46.5232587 46.71,46.47 C48.9,45.615 50.61,43.005 51.39,40.6125 C52.2335113,37.7593744 51.8872589,34.6863839 50.43,32.0925 C50.0679685,31.5989514 49.3852466,31.4706781 48.8687664,31.7991674 C48.3522862,32.1276567 48.1790003,32.8003641 48.4725,33.3375 C49.5608629,35.3443803 49.8167617,37.6986497 49.185,39.8925 C48.6225,41.6175 47.4075,43.71 45.87,44.31 C45.3430476,44.5089962 45.034573,45.0571423 45.1379322,45.6108526 C45.2412915,46.164563 45.7267435,46.5645095 46.29,46.56 L46.29,46.5525 Z" id="Shape"></path>
                    <path d="M32.7225,56.6775 C30.9975,57.2175 30.4725,56.9325 30.39,56.865 C30.3075,56.7975 30.2175,56.46 30.2175,56.295 L30.2175,44.6625 C31.4893882,44.1828631 32.6691407,43.4876971 33.705,42.6075 C35.8989718,40.7046979 37.1602271,37.944163 37.1625,35.04 C37.2111914,32.3573658 36.0010674,29.8066686 33.8925,28.1475 C32.0438203,26.7702688 29.9209753,25.8060368 27.6675,25.32 L27.615,25.32 L27.5625,25.32 C26.306389,25.1185634 25.0780798,24.7712137 23.9025,24.285 C23.7124113,24.2069699 23.541114,24.0893628 23.4,23.94 C23.3576427,23.640257 23.4996363,23.3444369 23.76,23.19 C24.3222313,22.8430579 24.974783,22.6707843 25.635,22.695 C26.248912,22.6753305 26.8606517,22.7772871 27.435,22.995 C28.0117745,23.3075037 28.544021,23.695968 29.0175,24.15 L29.055,24.15 L29.1,24.15 C30.8135671,25.431501 33.1973966,25.3085256 34.77,23.8575 C35.3200487,23.3028087 35.7178438,22.615708 35.925,21.8625 L35.97,21.6975 L35.97,21.525 L35.97,21.435 C35.9986523,21.2387748 36.0136883,21.0408017 36.015,20.8425 C36.0087342,20.1530763 35.8198178,19.4776353 35.4675,18.885 C34.4511797,17.2095474 32.9535807,15.8792194 31.17,15.0675 L31.1325,15.0675 C30.8025,14.9175 30.4725,14.79 30.1275,14.6625 L30.1275,3.225 C30.096301,2.7983831 30.1873589,2.37171201 30.39,1.995 C30.6696992,1.66500357 30.7430326,1.2069938 30.5803481,0.80616587 C30.4176635,0.40533794 30.0458704,0.127992272 29.6153024,0.0862729338 C29.1847344,0.0445535957 28.7666112,0.245361329 28.53,0.6075 C28.0129629,1.38034913 27.7507104,2.29561028 27.78,3.225 L27.78,14.025 L27.78,16.395 C28.1726365,16.4708123 28.5607392,16.568464 28.9425,16.6875 C29.351514,16.8181509 29.7522465,16.9734348 30.1425,17.1525 C31.5094205,17.7660251 32.6595067,18.7775782 33.4425,20.055 C33.5856329,20.2930655 33.6632575,20.5647515 33.6675,20.8425 C33.6597578,20.9757213 33.6447353,21.1084194 33.6225,21.24 C33.5231515,21.608458 33.3292464,21.94456 33.06,22.215 C32.6890893,22.5452846 32.2065007,22.7222337 31.71,22.71 C31.271544,22.7289675 30.8399038,22.5965625 30.4875,22.335 C29.8337655,21.7353477 29.0990989,21.2304221 28.305,20.835 C27.4358048,20.4850424 26.5042084,20.3165893 25.5675,20.34 C24.4805694,20.3295104 23.414301,20.6371379 22.5,21.225 C21.6296468,21.7797342 21.1055623,22.7429164 21.1125,23.775 C21.1125,24.96 21.7575,25.725 22.92,26.31 C24.269877,26.8878972 25.6853957,27.2984479 27.135,27.5325 C29.0676528,27.9427084 30.8922485,28.7553434 32.49,29.9175 C34.0563824,31.1324769 34.9504371,33.0208541 34.8975,35.0025 C34.8935574,37.2416417 33.9163704,39.3684603 32.22,40.83 C31.295958,41.6142035 30.2323956,42.2172282 29.085,42.6075 C28.713573,42.7311825 28.3354742,42.8338451 27.9525,42.915 L27.9525,44.34 C27.9442198,44.4197857 27.9442198,44.5002143 27.9525,44.58 L27.9525,56.295 C27.8944359,57.2452721 28.3134539,58.1620497 29.07,58.74 C29.6562045,59.1474045 30.3591675,59.3527645 31.0725,59.325 C31.891928,59.3043407 32.7035547,59.16022 33.48,58.8975 C33.8819238,58.7729036 34.1868453,58.443348 34.2799036,58.0329736 C34.3729618,57.6225992 34.2400191,57.1937517 33.9311536,56.9079736 C33.6222881,56.6221956 33.1844238,56.5229036 32.7825,56.6475 L32.7225,56.6775 Z" id="Shape"></path>
                    <path d="M17.4,35.25 C17.6768939,35.0832377 17.9919299,34.9902762 18.315,34.98 C19.1062922,35.0889542 19.8076191,35.5455043 20.2275,36.225 C21.4323242,38.1073613 23.55281,39.2005132 25.785,39.09 C26.9957001,39.1165324 28.1849982,38.7681257 29.19,38.0925 C30.1630177,37.4751881 30.751823,36.4023168 30.75,35.25 C30.7685397,34.1419711 30.1464111,33.1226148 29.1525,32.6325 C28.2681327,32.176906 27.3237841,31.8486565 26.3475,31.6575 L25.8075,31.515 C23.535839,31.1882916 21.374124,30.3272042 19.5,29.0025 C17.8544323,27.7997784 16.8952313,25.872987 16.9275,23.835 C16.9380107,21.6781439 17.9219441,19.6413742 19.605,18.2925 C20.5996893,17.4826106 21.7513972,16.8876041 22.9875,16.545 C23.376829,16.4355052 23.7725936,16.3503406 24.1725,16.29 L24.1725,13.9425 L24.1725,3.225 C24.2017896,2.29561028 23.9395371,1.38034913 23.4225,0.6075 C23.1858888,0.245361329 22.7677656,0.0445535957 22.3371976,0.0862729338 C21.9066296,0.127992272 21.5348365,0.40533794 21.3721519,0.80616587 C21.2094674,1.2069938 21.2828008,1.66500357 21.5625,1.995 C21.7651411,2.37171201 21.856199,2.7983831 21.825,3.225 L21.825,14.475 C20.4794535,14.9191689 19.22638,15.6054364 18.1275,16.5 C15.9156701,18.2875559 14.6264659,20.9761527 14.6175,23.82 C14.5912918,26.5714236 15.8783045,29.1705207 18.0825,30.8175 C20.2237392,32.3560609 22.6986734,33.3660808 25.305,33.765 L25.7625,33.885 L25.815,33.885 C26.5805769,34.0339761 27.3223619,34.2862839 28.02,34.635 C28.4475,34.875 28.4475,35.025 28.4475,35.235 C28.4431311,35.6166064 28.2261026,35.9638521 27.885,36.135 C27.2780073,36.5185512 26.5701873,36.7118305 25.8525,36.69 C24.4207836,36.795288 23.0448854,36.1145201 22.26,34.9125 L22.1925,34.8 L22.11,34.695 C20.985,33.2925 19.7325,32.58 18.36,32.58 C17.6371248,32.588325 16.9288803,32.7847724 16.305,33.15 C15.3647479,33.6568562 14.6478547,34.4967982 14.295,35.505 L14.295,35.565 L14.295,35.625 C14.1756507,36.0396783 14.112586,36.4685183 14.1075,36.9 C14.1088752,37.6287445 14.2782628,38.3473587 14.6025,39 C15.5545818,40.9456176 17.0772935,42.5546687 18.9675,43.6125 C19.9092539,44.1669849 20.9172168,44.6004089 21.9675,44.9025 L21.9675,56.235 C21.9675,56.4 21.9675,56.6925 21.795,56.805 C21.6225,56.9175 21.1875,57.1575 19.4625,56.6175 C19.0605762,56.4929036 18.6227119,56.5921955 18.3138463,56.8779735 C18.0049807,57.1637516 17.872038,57.5925992 17.9650963,58.0029736 C18.0581546,58.4133481 18.3630762,58.7429037 18.765,58.8675 C19.5414453,59.13022 20.353072,59.2743407 21.1725,59.295 C21.8858325,59.3227645 22.5887955,59.1174045 23.175,58.71 C23.9315461,58.1320497 24.3505641,57.2152721 24.2925,56.265 L24.2925,43.08 C23.9016734,43.0332295 23.5136215,42.9656334 23.13,42.8775 C22.0747866,42.6287236 21.0633231,42.2216095 20.13,41.67 C18.6405632,40.8478656 17.4390541,39.5887678 16.6875,38.0625 C16.512524,37.7211701 16.4200474,37.3435573 16.4175,36.96 C16.4231725,36.7338669 16.4584734,36.5094538 16.5225,36.2925 C16.6857882,35.8540655 16.9958533,35.4856976 17.4,35.25 Z" id="Shape"></path>
                    <path d="M63.105,41.7225 C61.6155632,40.9003656 60.4140541,39.6412678 59.6625,38.115 C59.487524,37.7736701 59.3950474,37.3960573 59.3925,37.0125 C59.3981725,36.7863669 59.4334734,36.5619538 59.4975,36.345 C59.6774768,35.8766408 60.0249238,35.4917764 60.4725,35.265 C60.7493939,35.0982377 61.0644299,35.0052762 61.3875,34.995 C62.1787922,35.1039542 62.8801191,35.5605043 63.3,36.24 C64.5048242,38.1223613 66.62531,39.2155132 68.8575,39.105 C70.0682001,39.1315324 71.2574982,38.7831257 72.2625,38.1075 C73.2345188,37.4980418 73.82838,36.4347474 73.8375,35.2875 C73.8560397,34.1794711 73.2339111,33.1601148 72.24,32.67 C71.3556327,32.214406 70.4112841,31.8861565 69.435,31.695 L68.895,31.5525 C66.623339,31.2257916 64.461624,30.3647042 62.5875,29.04 C60.9419323,27.8372784 59.9827313,25.910487 60.015,23.8725 C60.0255107,21.7156439 61.0094441,19.6788742 62.6925,18.33 C64.4019011,16.9516847 66.5341631,16.2047308 68.73,16.215 C70.3249373,16.2007404 71.9039057,16.5334242 73.3575,17.19 C74.7244205,17.8035251 75.8745067,18.8150782 76.6575,20.0925 C76.8006329,20.3305655 76.8782575,20.6022515 76.8825,20.88 C76.8747578,21.0132213 76.8597353,21.1459194 76.8375,21.2775 C76.7381515,21.645958 76.5442464,21.98206 76.275,22.2525 C75.9040893,22.5827846 75.4215007,22.7597337 74.925,22.7475 C74.486544,22.7664675 74.0549038,22.6340625 73.7025,22.3725 C73.0488274,21.77277 72.3141493,21.2678365 71.52,20.8725 C70.6508048,20.5225424 69.7192084,20.3540893 68.7825,20.3775 C67.6315858,20.3477993 66.4997235,20.6753057 65.5425,21.315 C64.6721468,21.8697342 64.1480623,22.8329164 64.155,23.865 C64.155,25.05 64.8,25.815 65.9625,26.4 C67.312377,26.9778972 68.7278957,27.3884479 70.1775,27.6225 C72.1101528,28.0327084 73.9347485,28.8453434 75.5325,30.0075 C77.0988824,31.2224769 77.9929371,33.1108541 77.94,35.0925 C77.9360574,37.3316417 76.9588704,39.4584603 75.2625,40.92 C73.4171414,42.4566684 71.0863028,43.2885412 68.685,43.2675 C66.719916,43.2635927 64.7922473,42.7298565 63.105,41.7225 Z" id="Shape"></path>
                    <path d="M82.8825,40.3125 C81.0100505,38.4624461 79.956216,35.9397551 79.956216,33.3075 C79.956216,30.6752449 81.0100505,28.1525539 82.8825,26.3025 C86.7573106,22.4696934 92.9951894,22.4696934 96.87,26.3025 C98.7602797,28.1157422 99.841475,30.6133034 99.87,33.2325 C99.8856662,33.7708748 99.6744799,34.2910743 99.2879681,34.6661762 C98.9014562,35.0412782 98.3751639,35.2367866 97.8375,35.205 L84.54,35.205 C84.874017,36.3567476 85.5646048,37.3729358 86.5125,38.1075 C87.4787519,38.8588696 88.6710619,39.2607124 89.895,39.2475 C91.3054507,39.327483 92.6787998,38.7781434 93.645,37.7475 C94.0271383,37.4185104 94.5132811,37.2352107 95.0175,37.23 C95.718356,37.2281446 96.3636289,37.6112755 96.6975,38.2275 C96.9257476,38.572382 97.0482663,38.9764331 97.05,39.39 C97.0424463,40.0036985 96.7517856,40.5794835 96.2625,40.95 C95.5510699,41.6206081 94.7222556,42.1545068 93.8175,42.525 C92.5783233,42.9887928 91.2629308,43.2152337 89.94,43.1925 C87.2982033,43.2087689 84.7586596,42.1724408 82.8825,40.3125 Z M95.58,31.74 C95.2914425,30.5038807 94.5969683,29.4001156 93.6075,28.605 C92.5658567,27.788835 91.2782706,27.3499453 89.955,27.36 C88.6429319,27.3342172 87.3643847,27.7754622 86.3475,28.605 C85.3703205,29.4031462 84.6911613,30.5077708 84.42,31.74 L95.58,31.74 Z" id="Shape"></path>
                    <path d="M116.205,40.98 L116.205,33 C116.262953,31.5777731 115.846058,30.1766879 115.02,29.0175 C114.234759,28.0289799 113.026637,27.4722417 111.765,27.5175 C110.444749,27.4791305 109.175535,28.0285737 108.3,29.0175 C107.400246,30.0934625 106.913609,31.4549808 106.9275,32.8575 L106.9275,40.8675 C106.929038,41.6998488 106.428336,42.4509229 105.659431,42.7696572 C104.890525,43.0883914 104.00529,42.9118297 103.4175,42.3225 C103.01677,41.9451157 102.791227,41.4179449 102.795,40.8675 L102.795,25.5 C102.771451,24.9327208 102.999206,24.3839145 103.4175,24 C103.818861,23.6100912 104.357957,23.3944526 104.9175,23.4 C105.466309,23.3809408 105.996648,23.5996372 106.3725,24 C106.759188,24.4018007 106.967405,24.9426235 106.95,25.5 L106.95,25.7925 C108.34051,24.3482586 110.241085,23.5056524 112.245,23.445 C114.508651,23.4027318 116.665957,24.403943 118.095,26.16 C119.621913,28.1182311 120.417654,30.5478934 120.345,33.03 L120.345,40.995 C120.345,42.1299452 119.424945,43.05 118.29,43.05 C117.155055,43.05 116.235,42.1299452 116.235,40.995 L116.205,40.98 Z" id="Shape"></path>
                    <path d="M126.0825,40.935 L126.0825,27.5925 L124.5825,27.5925 C124.03037,27.6048108 123.499872,27.3778453 123.1275,26.97 C122.726518,26.5741974 122.502094,26.0334161 122.505,25.47 C122.500681,24.9217684 122.719662,24.3953875 123.111554,24.0119847 C123.503445,23.6285819 124.034494,23.4211782 124.5825,23.4375 L126.0825,23.4375 L126.0825,18.4125 C126.0825,17.2713416 127.007592,16.34625 128.14875,16.34625 C129.289908,16.34625 130.215,17.2713416 130.215,18.4125 L130.215,23.4375 L132,23.4375 C132.548609,23.4190281 133.080906,23.6257291 133.473278,24.0096016 C133.865649,24.3934741 134.083956,24.9211176 134.0775,25.47 C134.089785,26.0260286 133.87535,26.5631315 133.483499,26.9578111 C133.091649,27.3524907 132.556103,27.5707846 132,27.5625 L130.215,27.5625 L130.215,40.905 C130.215,42.0461584 129.289908,42.97125 128.14875,42.97125 C127.007592,42.97125 126.0825,42.0461584 126.0825,40.905 L126.0825,40.935 Z" id="Shape"></path>
                    <path d="M137.5575,20.5575 C136.776752,19.7833429 136.652292,18.5651966 137.260348,17.6491428 C137.868404,16.7330891 139.03929,16.3747645 140.05587,16.7936332 C141.07245,17.2125019 141.651035,18.2916732 141.437256,19.3701838 C141.223478,20.4486944 140.276994,21.225572 139.1775,21.225 C138.569491,21.2305324 137.985126,20.9897525 137.5575,20.5575 Z M137.745,42.3675 C137.34427,41.9901157 137.118727,41.4629449 137.1225,40.9125 L137.1225,25.5 C137.098951,24.9327208 137.326706,24.3839145 137.745,24 C138.146361,23.6100912 138.685457,23.3944526 139.245,23.4 C139.793809,23.3809408 140.324148,23.5996372 140.7,24 C141.086688,24.4018007 141.294905,24.9426235 141.2775,25.5 L141.2775,40.935 C141.279038,41.7673488 140.778336,42.5184229 140.009431,42.8371572 C139.240525,43.1558914 138.35529,42.9793297 137.7675,42.39 L137.745,42.3675 Z" id="Shape"></path>
                    <path d="M147.975,48.24 C147.508799,47.8133508 147.237749,47.2143308 147.225,46.5825 C147.184045,46.0074907 147.424485,45.4483276 147.87,45.0825 C148.254761,44.7059885 148.76472,44.4843831 149.3025,44.46 C150.004462,44.5272186 150.659064,44.8438754 151.1475,45.3525 C152.244383,46.2831541 153.656132,46.7582106 155.0925,46.68 C156.486519,46.6410798 157.810365,46.0598792 158.7825,45.06 C159.742921,44.060874 160.335307,42.7650302 160.4625,41.385 C158.799185,42.5762503 156.80083,43.2091066 154.755,43.1925 C149.395528,43.0449435 145.127463,38.6577531 145.127463,33.29625 C145.127463,27.9347469 149.395528,23.5475565 154.755,23.4 C156.811794,23.3952228 158.817416,24.0410122 160.485,25.245 C160.593843,24.1840941 161.496165,23.3827545 162.5625,23.4 C163.107878,23.3856326 163.635509,23.5944062 164.023401,23.9780513 C164.411293,24.3616965 164.625863,24.8869966 164.6175,25.4325 L164.6175,32.6925 C164.603448,32.7894937 164.603448,32.8880063 164.6175,32.985 L164.6175,33.6075 C164.603571,33.7120381 164.603571,33.8179619 164.6175,33.9225 L164.6175,41.0175 C164.600393,43.6548577 163.550301,46.1804631 161.6925,48.0525 C159.838409,49.8878021 157.326144,50.9035136 154.7175,50.8725 C152.206575,50.9423644 149.774322,49.9927307 147.975,48.24 Z M158.6775,37.5 C159.708222,36.5057654 160.349336,35.1756525 160.485,33.75 L160.485,32.7975 C160.256017,29.8113959 157.749695,27.5150272 154.755,27.5475 C151.586266,27.5475 149.0175,30.1162662 149.0175,33.285 C149.0175,36.4537338 151.586266,39.0225 154.755,39.0225 C156.207711,39.0278023 157.608776,38.4839855 158.6775,37.5 Z" id="Shape"></path>
                    <path d="M170.0925,42.3675 C169.69177,41.9901157 169.466227,41.4629449 169.47,40.9125 L169.47,25.5 C169.478242,24.3502063 170.412677,23.4224705 171.5625,23.4225 C172.111309,23.4034408 172.641648,23.6221372 173.0175,24.0225 C173.404188,24.4243007 173.612405,24.9651235 173.595,25.5225 C175.378431,24.1869547 177.546928,23.465877 179.775,23.4675 L179.8575,23.4675 C180.423863,23.4168781 180.984386,23.6140776 181.394295,24.0081652 C181.804203,24.4022527 182.023302,24.9545836 181.995,25.5225 C181.989194,26.080129 181.759447,26.6120112 181.357441,26.9985015 C180.955435,27.3849918 180.414926,27.5936359 179.8575,27.5775 L179.775,27.5775 C178.13647,27.5740635 176.565681,28.2310373 175.4175,29.4 C174.239518,30.5759477 173.582919,32.1755635 173.595,33.84 L173.595,40.9575 C173.596538,41.7898488 173.095836,42.5409229 172.326931,42.8596572 C171.558025,43.1783914 170.67279,43.0018297 170.085,42.4125 L170.0925,42.3675 Z" id="Shape"></path>
                    <path d="M185.4075,40.3125 C182.235119,37.1580796 181.57461,32.2671714 183.796611,28.3842492 C186.018611,24.501327 190.570017,22.5929342 194.896861,23.7299423 C199.223705,24.8669504 202.248944,28.7663335 202.275,33.24 L202.275,40.8525 C202.275,41.410989 202.060165,41.948077 201.675,42.3525 C201.281173,42.7564053 200.739091,42.981369 200.175,42.975 C199.111608,42.9731724 198.232202,42.1462685 198.165,41.085 C196.56307,42.454533 194.527531,43.2118808 192.42,43.2225 C189.788,43.2263011 187.263499,42.178701 185.4075,40.3125 Z M196.5,37.365 C198.712705,35.1125012 198.712705,31.5024988 196.5,29.25 C195.412783,28.1749299 193.941426,27.5782881 192.4125,27.5925 C189.243766,27.5925 186.675,30.1612662 186.675,33.33 C186.675,36.4987338 189.243766,39.0675 192.4125,39.0675 C193.947084,39.0656245 195.417819,38.4530432 196.5,37.365 Z" id="Shape"></path>
                    <path d="M206.4075,47.9475 L206.4075,25.4475 C206.399137,24.9019966 206.613707,24.3766965 207.001599,23.9930513 C207.389491,23.6094062 207.917122,23.4006326 208.4625,23.415 C208.980668,23.4272226 209.478727,23.6179685 209.8725,23.955 C210.257011,24.2955223 210.495978,24.7707716 210.54,25.2825 C212.223327,24.0789607 214.23821,23.4265475 216.3075,23.415 C221.666972,23.5625565 225.935037,27.9497469 225.935037,33.31125 C225.935037,38.6727531 221.666972,43.0599435 216.3075,43.2075 C214.233588,43.2253762 212.209825,42.5700877 210.54,41.34 L210.54,47.94 C210.54,49.0811584 209.614908,50.00625 208.47375,50.00625 C207.332592,50.00625 206.4075,49.0811584 206.4075,47.94 L206.4075,47.9475 Z M220.395,37.365 C222.607705,35.1125012 222.607705,31.5024988 220.395,29.25 C219.307783,28.1749299 217.836426,27.5782881 216.3075,27.5925 C213.138766,27.5925 210.57,30.1612662 210.57,33.33 C210.57,36.4987338 213.138766,39.0675 216.3075,39.0675 C217.839484,39.0636344 219.307155,38.4512055 220.3875,37.365 L220.395,37.365 Z" id="Shape"></path>
                    <path d="M242.55,40.98 L242.55,33.09 C242.612653,31.6495719 242.204583,30.2279112 241.3875,29.04 C240.603822,28.0369077 239.38139,27.477442 238.11,27.54 C236.813752,27.5350437 235.576246,28.0802005 234.705,29.04 C233.804224,30.0547889 233.296121,31.3582993 233.2725,32.715 L233.2725,40.965 C233.2725,42.1061584 232.347408,43.03125 231.20625,43.03125 C230.065092,43.03125 229.14,42.1061584 229.14,40.965 L229.14,18.5025 C229.136239,17.9389162 229.360796,17.3978158 229.7625,17.0025 C230.353174,16.3986886 231.254018,16.2195757 232.030744,16.5515099 C232.80747,16.8834441 233.300639,17.6582893 233.2725,18.5025 L233.2725,25.7625 C234.66301,24.3182586 236.563585,23.4756524 238.5675,23.415 C240.831151,23.3727318 242.988457,24.373943 244.4175,26.13 C245.944413,28.0882311 246.740154,30.5178934 246.6675,33 L246.6675,40.965 C246.6675,42.0999452 245.747445,43.02 244.6125,43.02 C243.477555,43.02 242.5575,42.0999452 242.5575,40.965 L242.55,40.98 Z" id="Shape"></path>
                </g>
            </g>
        </g>
    </g>
</svg>